<svg xmlns="http://www.w3.org/2000/svg" viewBox="0 0 500 500"><g id="freepik--Floor--inject-111"><ellipse id="freepik--floor--inject-111" cx="251.12" cy="328.55" rx="233.35" ry="143.72" style="fill:#f5f5f5"></ellipse></g><g id="freepik--Shadows--inject-111"><path id="freepik--Shadow--inject-111" d="M345.21,318.71,217.79,245.14a7,7,0,0,0-6.34,0l-107.6,62.12c-1.75,1-1.75,2.65,0,3.66l127.42,73.57a7,7,0,0,0,6.34,0l8.77-5.06,58.49-33.78,40.34-23.29C347,321.35,347,319.72,345.21,318.71Z" style="fill:#e0e0e0"></path><path id="freepik--shadow--inject-111" d="M426.46,257.4l-72.64-42.12a4.77,4.77,0,0,0-4.29,0l-72.9,42.09a1.31,1.31,0,0,0,0,2.48L349.26,302a4.79,4.79,0,0,0,4.3,0l5.94-3.43,39.63-22.88,27.33-15.78A1.31,1.31,0,0,0,426.46,257.4Z" style="fill:#e0e0e0"></path><ellipse id="freepik--shadow--inject-111" cx="85.37" cy="333.43" rx="37.31" ry="21.54" style="fill:#e0e0e0"></ellipse><ellipse id="freepik--shadow--inject-111" cx="317.08" cy="371.91" rx="71.8" ry="41.45" style="fill:#e0e0e0"></ellipse></g><g id="freepik--end-table--inject-111"><g id="freepik--end-table--inject-111"><polygon points="414.95 263.03 403.39 256.35 414.95 253.01 414.95 263.03" style="fill:#e0e0e0"></polygon><polygon points="414.95 263.03 403.39 256.35 414.95 253.01 414.95 263.03" style="opacity:0.1"></polygon><polygon points="357.01 286.47 357.01 297.12 290.31 258.52 290.31 247.88 357.01 286.47" style="fill:#e0e0e0"></polygon><polygon points="357.01 286.47 357.01 297.12 290.31 258.52 290.31 247.88 357.01 286.47" style="opacity:0.1"></polygon><polygon points="284.53 164.39 351.23 202.98 351.23 289.81 284.53 251.22 284.53 164.39" style="fill:#e0e0e0"></polygon><polygon points="351.23 202.98 426.52 159.51 426.52 246.33 351.23 289.81 351.23 202.98" style="fill:#ebebeb"></polygon><polygon points="426.52 159.51 359.83 120.91 284.53 164.39 351.23 202.98 426.52 159.51" style="fill:#f5f5f5"></polygon><polygon points="357.01 206.32 420.74 169.52 420.74 189.56 357.01 226.36 357.01 206.32" style="fill:#fafafa"></polygon><polygon points="357.01 233.04 420.74 196.24 420.74 242.99 357.01 279.79 357.01 233.04" style="opacity:0.1"></polygon><polygon points="357.01 297.12 362.8 293.78 362.8 283.13 357.01 286.47 357.01 297.12" style="fill:#ebebeb"></polygon><polygon points="414.95 263.03 420.74 259.69 420.74 249.67 414.95 253.01 414.95 263.03" style="fill:#ebebeb"></polygon><path d="M376.76,199.14c0,.92,2.76.07,6.17-1.89l10.8-6.24c3.41-2,6.17-4.31,6.17-5.23v-1.67l-23.14,13.36Z" style="fill:#e0e0e0"></path><polygon points="420.74 242.99 380.52 219.46 357.01 233.04 357.01 279.79 420.74 242.99" style="opacity:0.1"></polygon></g></g><g id="freepik--Lamp--inject-111"><ellipse cx="355.35" cy="154.87" rx="20.35" ry="11.75" style="fill:#e0e0e0"></ellipse><path d="M373.53,149.46a11.47,11.47,0,0,0-4.88-4.89c-7.35-4.24-19.26-4.24-26.61,0a11.38,11.38,0,0,0-4.87,4.89h-.64v2.79h0c0,2.78,1.84,5.56,5.51,7.68,7.35,4.24,19.26,4.24,26.61,0,3.67-2.12,5.51-4.9,5.51-7.68h0v-2.79Z" style="fill:#37474f"></path><path d="M342,157.14c-7.34-4.24-7.34-11.12,0-15.36s19.26-4.25,26.61,0,7.35,11.12,0,15.36S349.39,161.38,342,157.14Z" style="fill:#455a64"></path><path d="M359.44,147.78l-3.53-1.24c15.09-43-20.16-56.78-21.67-57.35l1.3-3.5C336,85.84,375.76,101.24,359.44,147.78Z" style="fill:#37474f"></path><path d="M362.6,149.46a7.26,7.26,0,1,0-14.51,0h0a3.61,3.61,0,0,0,2.13,3,11.37,11.37,0,0,0,10.26,0,3.59,3.59,0,0,0,2.12-3Z" style="fill:#37474f"></path><path d="M360.18,149c-.51,3-6.71,4.51-9.21,3.77a11.47,11.47,0,0,0,9.51-.37,3.59,3.59,0,0,0,2.12-3,7.26,7.26,0,0,0-7.25-7.26C357.11,142.2,360.7,146,360.18,149Z" style="fill:#263238"></path><path d="M335.1,86.67l-1.26-1.45,4.41-3.84a1,1,0,0,1,1.35.09h0a1,1,0,0,1-.09,1.36Z"></path><path d="M337.85,89.11c1.06-1.33.14-3.77-1.08-5.17s-3.5-2.64-5-1.78-4.34,3-4.34,3L334.31,93S336.79,90.44,337.85,89.11Z" style="fill:#37474f"></path><path d="M334.5,82.26c1.54,1.79,2.19,5.17-2.36,8.26L334.31,93s2.48-2.56,3.54-3.89.14-3.77-1.08-5.17A6.86,6.86,0,0,0,334.5,82.26Z" style="fill:#263238"></path><path d="M323.53,120.42c5.88-5.13,15.45-24.54,8.59-32.43S304.7,86.92,298.82,92" style="fill:#455a64"></path><path d="M297.55,100.45c-2.13-7.89,2.25-11.69,9.77-8.5s15.34,12.17,17.47,20.06-2.24,11.7-9.77,8.51S299.68,108.34,297.55,100.45Z" style="fill:#37474f"></path><path d="M322.07,106.8c.14-.11.26-.24.39-.36A37.43,37.43,0,0,0,312.4,94.93l-.4.31a7.67,7.67,0,0,0,10.07,11.56Z" style="fill:#FDAD7C"></path><path d="M322.07,106.8c.14-.11.26-.24.39-.36A37.43,37.43,0,0,0,312.4,94.93l-.4.31a7.67,7.67,0,0,0,10.07,11.56Z" style="fill:#fff;opacity:0.7000000000000001"></path></g><g id="freepik--speech-bubble--inject-111"><g id="freepik--speech-bubble--inject-111"><g id="freepik--speech-bubble--inject-111"><path d="M142.21,115.84V103.9l10.08-.88a.81.81,0,0,1,.42.08l10.06,5.75a.75.75,0,0,1,.16,1.14l-10.68,11.58Z" style="fill:#FDAD7C"></path><path d="M152.25,121.57,162.93,110a.74.74,0,0,0-.61-1.24l-10.07.88Z" style="fill:#FDAD7C"></path><path d="M142.22,103.89l10,5.75,10.08-.89a.93.93,0,0,1,.34,0c-.8-.47-9.59-5.5-10-5.69a.66.66,0,0,0-.42-.09Z" style="fill:#FDAD7C"></path><path d="M142.22,103.89l10,5.75,10.08-.89a.93.93,0,0,1,.34,0c-.8-.47-9.59-5.5-10-5.69a.66.66,0,0,0-.42-.09Z" style="fill:#fff;opacity:0.5"></path><path d="M152.23,96.16a8,8,0,0,0-3.64-6.29l-.92-.62a8,8,0,0,0-7.27,0l-31.52,18.21a8,8,0,0,0-3.64,6.29v36.42a8,8,0,0,0,3.64,6.3l.92.62a8.07,8.07,0,0,0,7.26,0l9.31-5.38,12.1-7,10.12-5.84a8,8,0,0,0,3.64-6.29Z" style="fill:#FDAD7C"></path><path d="M105.24,150.17a8,8,0,0,0,3.64,6.3l.92.62a8.16,8.16,0,0,0,6.64.29c-1.71.64-3-.32-3-2.39V118.56a7.5,7.5,0,0,1,1.06-3.58l-8.18-4.81a7.4,7.4,0,0,0-1.07,3.58Z" style="opacity:0.2"></path><path d="M152.11,95.13c-.43-1.54-1.83-2-3.51-1.07l-31.54,18.21A7.24,7.24,0,0,0,114.5,115l-8.18-4.81a7.21,7.21,0,0,1,2.56-2.71L140.4,89.25a8.09,8.09,0,0,1,7.27,0l.93.63A8,8,0,0,1,152.11,95.13Z" style="fill:#fff;opacity:0.5"></path></g><path id="freepik--Gear--inject-111" d="M145.49,121.69l-2.65-.13c-.19,0-.33-.27-.32-.58a15.91,15.91,0,0,0-.1-2.22,1.54,1.54,0,0,1,.16-.91l2.63-3.73a.9.9,0,0,0,0-.82l-1.31-2.82c-.12-.26-.34-.34-.49-.18l-2.93,3.08a.43.43,0,0,1-.58,0,5.07,5.07,0,0,0-1.28-.77.6.6,0,0,1-.26-.65l.65-4.19c.05-.3-.07-.52-.25-.5l-3.1.37c-.19,0-.4.26-.48.53l-1.28,4.37a1.22,1.22,0,0,1-.46.65,11.16,11.16,0,0,0-2,1.3c-.16.13-.41.06-.56-.17l-1.44-2.21c-.14-.22-.38-.26-.52-.08l-3.06,3.76a1,1,0,0,0-.09.84l.91,2.86a1.33,1.33,0,0,1-.06.91,26.42,26.42,0,0,0-1.31,2.73,1,1,0,0,1-.5.54l-2.94.81a.86.86,0,0,0-.45.6l-1.06,4.75c-.07.28,0,.52.22.53l2.66.13c.18,0,.32.27.31.58a15.91,15.91,0,0,0,.1,2.22,1.54,1.54,0,0,1-.16.91l-2.63,3.73a.94.94,0,0,0,0,.82l1.3,2.82c.13.26.35.34.5.18l2.92-3.08a.43.43,0,0,1,.59,0,4.74,4.74,0,0,0,1.28.77.59.59,0,0,1,.25.65l-.65,4.19c0,.3.07.52.26.5l3.1-.37c.18,0,.39-.26.47-.53l1.29-4.37a1.17,1.17,0,0,1,.46-.65,11.47,11.47,0,0,0,2-1.3.39.39,0,0,1,.56.16l1.44,2.21c.15.23.38.27.52.09l3.07-3.76a1,1,0,0,0,.09-.84l-.91-2.86a1.27,1.27,0,0,1,0-.91,26.42,26.42,0,0,0,1.31-2.73,1,1,0,0,1,.51-.54l2.94-.81a.83.83,0,0,0,.44-.6l1.07-4.75C145.78,121.94,145.68,121.7,145.49,121.69Zm-6.06,3.59c-1.21,5.38-5,10.08-8.55,10.5s-5.39-3.61-4.18-9,5-10.09,8.56-10.5S140.64,119.89,139.43,125.28Z" style="fill:#fafafa"></path></g></g><g id="freepik--Character--inject-111"><path d="M321.07,264.42h0a13.89,13.89,0,0,1-6.75,14.31l-79,41.17-.23,4.56-3.6,2.08,4.64,2.66,87.29-50.53Z" style="fill:#37474f"></path><path d="M238.61,349.28h0c-.5-6.06,1.65-12.17,6.93-15.21L316.71,293a6.68,6.68,0,0,1,9.93,4.68h0l-4.75-28.32h0a13.57,13.57,0,0,1-6.61,14L241.6,326a3.52,3.52,0,0,1-5.52-2.89l-.38-3.91Z" style="fill:#455a64"></path><path d="M240.16,154.88,220,166.53,306,221a22.93,22.93,0,0,1,10.35,15.58l12.54,81.15a1.4,1.4,0,0,0,2.08,1h0c.47-.28.74-.79.58-2.77l-7.17-86.24c-.4-4.87-3.51-10.67-8.46-14.6Z" style="fill:#455a64"></path><polygon points="276.21 202.09 289.05 210.21 286.36 191.56 274.85 182.43 276.21 202.09" style="opacity:0.2"></polygon><path d="M146.73,262l-.5,1.14a8.8,8.8,0,0,0,3.68,11.11L229.27,320l-2-11.87,3,17.8-88.95-51.5Z" style="fill:#263238"></path><path d="M146.73,262l-.32.72A6.74,6.74,0,0,0,156,271.2l3.39-1.95,4.51,2.6-18.5,10.68-5.86-3.91Z" style="fill:#263238"></path><path d="M231.22,321.16l-76.08-44a10.63,10.63,0,0,1-4.81-8.32v-4.49a10.63,10.63,0,0,1,4.81-8.32l76.08-43.93a10.65,10.65,0,0,1,9.62,0l76.08,43.93a10.61,10.61,0,0,1,4.81,8.32v4.55a10.61,10.61,0,0,1-4.81,8.32l-76.08,43.91A10.65,10.65,0,0,1,231.22,321.16Z" style="fill:#FDAD7C"></path><path d="M232.63,321.76a7.41,7.41,0,0,1-1.41-.61l-76.08-44a10.62,10.62,0,0,1-4.8-8.32v-4.49a10.79,10.79,0,0,1,3.9-7.69c-1.71,1.53-1.41,3.58.9,4.91l75.72,43.72Z" style="opacity:0.30000000000000004"></path><path d="M321.73,264.38v4.54a10.6,10.6,0,0,1-4.81,8.33l-76.08,43.91a10.72,10.72,0,0,1-8.21.59l-1.77-16.43.36.21a10.59,10.59,0,0,0,9.62,0l76.08-43.93c2.32-1.33,2.62-3.39.9-4.91A10.76,10.76,0,0,1,321.73,264.38Z" style="opacity:0.15"></path><path d="M258.29,227.75,182.2,271.68a10.06,10.06,0,0,1-5.63,1.11c-.29,0-.57-.05-.85-.09l-.17,0-.5-.09-.07,0a6.87,6.87,0,0,1-.75-.19,7.55,7.55,0,0,1-1.64-.69l-3.92-2.26a13.52,13.52,0,0,1-5.78-8.24l-11.57-64.59a6.78,6.78,0,0,1-.1-1.2c0-.16,0-.31,0-.47a8.77,8.77,0,0,1,.53-2.36,8.54,8.54,0,0,1,2.54-3.63l.33-.26c.17-.11.33-.22.51-.32l76.08-43.93a10.65,10.65,0,0,1,9.62,0l3.91,2.26a10.43,10.43,0,0,1,2.31,1.88c.14.14.27.29.39.43a14.2,14.2,0,0,1,1.4,1.89,3.23,3.23,0,0,1,.27.44c.08.12.15.25.22.38s.2.38.29.57a5.86,5.86,0,0,1,.26.57c.07.16.13.32.19.48a2,2,0,0,1,.09.22c.05.14.09.29.13.43a5.62,5.62,0,0,1,.15.55,2.88,2.88,0,0,1,.09.4l11.58,64.6A8.47,8.47,0,0,1,258.29,227.75Z" style="fill:#FDAD7C"></path><path d="M164.85,204.4,176.42,269c.54,3,3.13,4.22,5.78,2.69l76.09-43.93a8.48,8.48,0,0,0,3.83-8.24l-11.58-64.59c-.54-3-3.13-4.22-5.78-2.68l-76.09,43.92A8.45,8.45,0,0,0,164.85,204.4Z" style="fill:#FDAD7C"></path><path d="M164.85,204.4,176.42,269c.54,3,3.13,4.22,5.78,2.69l76.09-43.93a8.48,8.48,0,0,0,3.83-8.24l-11.58-64.59c-.54-3-3.13-4.22-5.78-2.68l-76.09,43.92A8.45,8.45,0,0,0,164.85,204.4Z" style="opacity:0.15"></path><path d="M180.24,272.46a11.49,11.49,0,0,1-3.67.33c-.29,0-.57-.05-.85-.09s-.45-.07-.67-.12l-.07,0a6.87,6.87,0,0,1-.75-.19,7.55,7.55,0,0,1-1.64-.69l-3.92-2.26a13.52,13.52,0,0,1-5.78-8.24l-11.57-64.59a6.78,6.78,0,0,1-.1-1.2c0-.16,0-.31,0-.47a8.77,8.77,0,0,1,.53-2.36l13.57,7.71a7.63,7.63,0,0,0-.48,4.14L176.42,269c.4,2.25,1.94,3.5,3.81,3.35A.53.53,0,0,0,180.24,272.46Z" style="opacity:0.30000000000000004"></path><g id="freepik--character--inject-111"><path d="M340,330.26s4.6,18,7.69,23.7A88.67,88.67,0,0,0,360,371.85c1.16,1.29,3.79,3.69,4.74,4.74a2.05,2.05,0,0,1-.16,3.17c-2.28,2.27-12.13,3-17.72-1.07s-10.32-10.77-13.67-14c-1.68-1.64-3.26-3.2-4.41-4.36a4.48,4.48,0,0,1-1.19-4.23c.11-.43.23-.94.36-1.54,1.18-5.34-5.21-18.84-5.21-18.84C327.32,329,334.05,329.29,340,330.26Z" style="fill:#ffa8a7"></path><path d="M327.23,361.51a5.38,5.38,0,0,0,.32,2.68c.55,1.21,4.05,3.35,5.84,4.19a9.56,9.56,0,0,1,4.81,4.8,21.08,21.08,0,0,0,9.61,9.26,29.18,29.18,0,0,0,17.27,1.44c7.18-1.43,7.68-5.7,7.68-5.7s.3-4-1.5-4.6S327.23,361.51,327.23,361.51Z" style="fill:#263238"></path><path d="M327,349.16a9.15,9.15,0,0,1-.07,1.93c-.19,2-.35,3.23-.43,5.5a11.51,11.51,0,0,0,.77,4.92c2.18,2.9,7.22,3.77,10.2,7.73s6.54,10.09,16,11.78,16.58-1.45,18.28-4.17,0-5.22-6.07-8.37c-6.49-3.34-14.3-12.45-14.3-12.46-.79-.92-1.48-1.94-2.18-2.92a13.55,13.55,0,0,1-2.11-3.56,16.17,16.17,0,0,1-.77-4.24.51.51,0,0,0-.09-.35.52.52,0,0,0-.34-.12,16.47,16.47,0,0,0-10.09,2.35,2.6,2.6,0,0,0-.81.7,2.72,2.72,0,0,0-.33.83c-.2.76-.41,1.52-.62,2.28a2.11,2.11,0,0,1-.95,1.52c-.69.31-1.46-.18-2.06-.65s-1-1.54-1.65-2A3.33,3.33,0,0,0,327,349.16Z" style="fill:#455a64"></path><path d="M347.29,378.89s-.26-6.61,6.79-10.39,11.42-1.52,13.63,0c2.63,1.82,6.42,5.64,4.22,8.52-2.38,3.1-6.24,4.63-13.51,4.86S347.29,378.89,347.29,378.89Z" style="fill:#fafafa"></path><path d="M237.26,236.76c3.4,9.75,4.59,20.81,17.37,29.8,11.62,8.17,37.58,14.36,40.86,16s5.44,2.19,6.85,7.5c1.91,7.25,2.14,12.74,8.94,25.47,4.78,8.95,8.44,15.36,12.21,21.95,3.45.4,15.21-2.83,17-5.58-.86-5.56-10.73-58.38-16.69-69.91-5-9.75-67.7-41.61-67.7-41.61S233.86,227,237.26,236.76Z" style="fill:#FDAD7C"></path><path d="M237.26,236.76c3.4,9.75,4.59,20.81,17.37,29.8,11.62,8.17,37.58,14.36,40.86,16s5.44,2.19,6.85,7.5c1.91,7.25,2.14,12.74,8.94,25.47,4.78,8.95,8.44,15.36,12.21,21.95,3.45.4,15.21-2.83,17-5.58-.86-5.56-10.73-58.38-16.69-69.91-5-9.75-67.7-41.61-67.7-41.61S233.86,227,237.26,236.76Z" style="opacity:0.35000000000000003"></path><path d="M323.49,337.45a24.67,24.67,0,0,0,7.34-1.1,14.2,14.2,0,0,0-1.15-2.12c-4.12-6.19-7-12.36-10.77-19.93-8-16.07-6-32.29-10.35-39.24-3.74-5.95-13.59-11.78-13.59-11.78l18.21-10.51c-.53-.37-1.08-.74-1.64-1.11l-.08,0c-1.13-.75-2.31-1.52-3.53-2.3l-.11-.07-3.8-2.38-.07,0-2-1.2h0q-2-1.22-4.07-2.43l-.18-.11q-2-1.2-4.1-2.39l-.23-.13-2-1.13-.1-.06-2.08-1.18-.19-.1-1.84-1-.33-.19-2-1.11-.13-.08-1.83-1-.41-.23-1.87-1,0,0-4.31-.77-35.63,14.91c.46,1.31,1,2.62,1.53,3.93l0,0a35.92,35.92,0,0,0,3.64,6.48h0L263,271.21c10.21,4.68,23.28,8.32,29.37,10.24h0l1.51.49.16.06.42.14.17.06.33.13.12.05.35.15,1.76.85a8,8,0,0,1,3.56,2.89,12.93,12.93,0,0,1,1.53,3.76c.12.45.23.9.34,1.34.32,1.33.61,2.61.9,3.91.1.43.2.87.31,1.31.31,1.31.65,2.67,1.08,4.12.15.48.3,1,.46,1.48.33,1,.71,2.09,1.15,3.22a88.72,88.72,0,0,0,4.7,10.09c.29.56.59,1.11.88,1.65,1.74,3.24,3.34,6.15,4.85,8.87l.75,1.34c1,1.77,1.95,3.47,2.9,5.14.71,1.25,1.42,2.48,2.12,3.72l.71,1.23Z" style="opacity:0.1"></path><path d="M289.74,353.81s4.59,18,7.69,23.7a89,89,0,0,0,12.21,17.88c1.17,1.3,3.8,3.7,4.75,4.75a2.05,2.05,0,0,1-.16,3.17c-2.28,2.27-12.13,3-17.73-1.07s-10.31-10.77-13.66-14c-1.68-1.64-3.26-3.21-4.41-4.36a4.47,4.47,0,0,1-1.19-4.24c.11-.43.22-.93.36-1.53,1.17-5.35-5.22-18.84-5.22-18.84C277,352.57,283.75,352.83,289.74,353.81Z" style="fill:#ffa8a7"></path><path d="M276.93,385.05a5.42,5.42,0,0,0,.32,2.69c.55,1.2,4,3.34,5.83,4.18s3.19,2.17,4.81,4.8c2.23,3.62,5.54,7.49,9.61,9.26a29.11,29.11,0,0,0,17.27,1.45c7.19-1.44,7.69-5.7,7.69-5.7s.3-4-1.5-4.6S276.93,385.05,276.93,385.05Z" style="fill:#263238"></path><path d="M276.66,372.71a9.06,9.06,0,0,1-.07,1.92c-.19,2-.36,3.24-.43,5.51a11.44,11.44,0,0,0,.77,4.91c2.18,2.91,7.22,3.78,10.2,7.74s6.54,10.09,16,11.78,16.58-1.45,18.27-4.17.05-5.22-6.06-8.37c-6.49-3.35-14.3-12.46-14.31-12.46-.78-.92-1.48-1.94-2.18-2.92a13.85,13.85,0,0,1-2.1-3.57,16,16,0,0,1-.77-4.23.47.47,0,0,0-.1-.35.48.48,0,0,0-.33-.12,16.47,16.47,0,0,0-10.09,2.35,2.49,2.49,0,0,0-.81.7,2.62,2.62,0,0,0-.33.83c-.21.75-.41,1.51-.62,2.27a2.16,2.16,0,0,1-1,1.53c-.69.3-1.46-.19-2.06-.65s-1-1.54-1.65-2.05A3.37,3.37,0,0,0,276.66,372.71Z" style="fill:#455a64"></path><path d="M297,402.44s-.26-6.61,6.79-10.39,11.42-1.52,13.63,0c2.63,1.81,6.41,5.64,4.22,8.51-2.38,3.11-6.25,4.64-13.51,4.87S297,402.44,297,402.44Z" style="fill:#fafafa"></path><path d="M191.88,230.05c-1.72,9.66-4,24.72,1.84,33.23,5.4,7.85,12.62,13.18,25.79,21.59,14.52,9.27,21.77,13.79,25.2,16.23s6.76,5.84,7.79,11.24c1.21,6.28,2.34,12.49,8.48,25.51,4.82,10.24,10.19,19.62,12.91,24.81,4.08.7,14.28-1.26,16.95-4.72-1.48-7.75-9.94-62.72-13.55-70.87S245,254.47,245,254.47s-2.27-14.78.05-24.42Z" style="fill:#FDAD7C"></path><path d="M191.88,230.05c-1.72,9.66-4,24.72,1.84,33.23,5.4,7.85,12.62,13.18,25.79,21.59,14.52,9.27,21.77,13.79,25.2,16.23s6.76,5.84,7.79,11.24c1.21,6.28,2.34,12.49,8.48,25.51,4.82,10.24,10.19,19.62,12.91,24.81,4.08.7,14.28-1.26,16.95-4.72-1.48-7.75-9.94-62.72-13.55-70.87S245,254.47,245,254.47s-2.27-14.78.05-24.42Z" style="opacity:0.35000000000000003"></path><path d="M281.37,362.19a17.7,17.7,0,0,0-1.54-3.5c-5-9.29-12.05-24.76-15.45-36.3s-.66-19.95-6.34-26.79a48.1,48.1,0,0,0-6.23-6.81l18.13-11.06c-3-3.12-7.54-7.58-11.26-11-11.19-2.39-27,5.09-32,.33-10.53-10-5.76-12.3,10.53-21.4,1.87-1,4.25-2.34,6.85-3.82,10.14-6,12.9-12.24,14-20.39l-66.16,8.64c-.38,2.11-.78,4.48-1.12,7-.1.72-.19,1.44-.27,2.18-.21,1.83-.38,3.72-.46,5.61,0,.76-.06,1.51-.07,2.27,0,1.13,0,2.26.08,3.37,0,.74.1,1.47.18,2.2a29.66,29.66,0,0,0,1,5.21,18.91,18.91,0,0,0,2.48,5.4c.34.49.69,1,1,1.45a44.82,44.82,0,0,0,3.42,4.06,54.71,54.71,0,0,0,4,3.82c1,.84,2,1.67,3.09,2.52s2.26,1.71,3.49,2.59c3.08,2.2,6.61,4.52,10.73,7.15l5.11,3.26c4.79,3.05,8.61,5.47,11.65,7.42l1.46.93c3.25,2.09,5.48,3.55,7,4.62a22.17,22.17,0,0,1,4.26,3.84,16,16,0,0,1,3.53,7.4c1.21,6.28,2.34,12.49,8.48,25.51,2.41,5.12,5,10,7.25,14.3.85,1.6,1.67,3.12,2.43,4.52,1.27,2.34,2.38,4.37,3.23,6A23.06,23.06,0,0,0,281.37,362.19Z" style="opacity:0.1"></path><path d="M251.81,241.23a75.23,75.23,0,0,1-6.83,8.63l1.94,1.63A27.48,27.48,0,0,0,251.81,241.23Z" style="fill:#37474f"></path><path d="M290.91,229.31c-1.75-7.88-6.48-29.75-8.3-39.15a18.32,18.32,0,0,0-3.2-7.33L255.93,149l-3.26,2.39,2.91,38,6.61,7.57c3.78,12.79,12.88,38,12.88,38C280.31,241.25,292.19,235.05,290.91,229.31Z" style="fill:#ffa8a7"></path><path d="M231.1,140.55c10.21-1.79,17.76-1.21,24.23,6,5.17,5.76,23.18,33,23.18,33S271.4,193.16,259.23,196l-16.65-16.63Z" style="fill:#455a64"></path><path d="M216.25,141.5c-12.46,2.3-20.78,5-23.13,7.27-5.3,10.85,1.6,47.26,1.6,47.26l-.71,17-3,17c13.47,11.38,59.67,7.32,67-8.63,0,0-2.38-49.43-3.3-58.59-1.06-10.57-6.81-21.63-20.93-22.46Z" style="fill:#fafafa"></path><path d="M207.17,225.51c-3.6-5.54-6.75-19.74-6.75-19.74s5.94-37.12,4.49-45.88l-13,16.46c1.06,10.51,2.8,19.68,2.8,19.68l-.71,17-3,17c10.77,9.1,40.92,10.37,59.62-1.15C230.84,235.43,210.78,231.05,207.17,225.51Z" style="fill:#ebebeb"></path><path d="M207.71,108.56s1.94,14.25,3,16.64a6.38,6.38,0,0,0,3.45,3.24l.53-9.89Z" style="fill:#263238"></path><path d="M213,88.74a6.94,6.94,0,0,0-5.87,1.58c-2.65,2.33-1.86,10.3.62,18.24l5.58,1.06Z" style="fill:#263238"></path><path d="M215,109.75c-1.18.59-2.62-1.69-3.9-3.25s-5.68-3.89-8.3.71,1.16,11.44,4.65,12.83c6,2.39,7.23-1.49,7.23-1.49L213.34,143c5.58,12.16,32.37,11.49,20.25-.35l.44-7.71a64.77,64.77,0,0,0,9.3.7c4.58-.36,6.68-3.36,8.42-8.16,2.79-7.71,4.11-14,3.39-29.64-.78-17.13-20.51-18.78-31.68-12.87S215,109.75,215,109.75Z" style="fill:#ffa8a7"></path><path d="M214.58,79.53a55.07,55.07,0,0,1,11.91-2.64c8.75-1.22,17.65-2.29,25.82-5.67a5.51,5.51,0,0,1,3.15-.66c2,.43,2.77,3,2.7,5.1A17.3,17.3,0,0,1,257,81.34c1.21-1.24,3.48-.89,4.63.42a5.78,5.78,0,0,1,1,4.94c-.8,3.81-4,6.8-7.61,8.26s-7.63,1.58-11.53,1.4a78.62,78.62,0,0,1-16.13-2.44,11.32,11.32,0,0,0-3.9-.57,3.56,3.56,0,0,0-3.11,2.11c-.73,2.1-2.41,16.64-5.42,16.47-.56,0-2.41-3.86-3.69-5.27-1.62-1.78-2.43-14.4-2.57-16.74a1,1,0,0,0-.2-.5c-1.76-2.89.89-7.35,3.42-8.67A23.7,23.7,0,0,1,214.58,79.53Z" style="fill:#263238"></path><path d="M209.5,89.69a4.12,4.12,0,0,1-5.86-5.79Z" style="fill:#263238"></path><path d="M234,134.94s-10-1.72-13.44-3.87a11.7,11.7,0,0,1-4.53-5.2,16,16,0,0,0,2.35,5.91c2.34,3.5,15.39,7,15.39,7Z" style="fill:#f28f8f"></path><path d="M235,108.6a2,2,0,1,1-1.87-2.26A2.06,2.06,0,0,1,235,108.6Z" style="fill:#263238"></path><path d="M233.47,100.79,229,102.86a2.61,2.61,0,0,1,1.27-3.38A2.43,2.43,0,0,1,233.47,100.79Z" style="fill:#263238"></path><path d="M234,122.71l4.49,2.08a2.42,2.42,0,0,1-3.25,1.3A2.59,2.59,0,0,1,234,122.71Z" style="fill:#f28f8f"></path><path d="M253,104l-3.72-3.34a2.4,2.4,0,0,1,3.47-.27A2.63,2.63,0,0,1,253,104Z" style="fill:#263238"></path><path d="M251.38,109.28a2.05,2.05,0,0,1-2.18,2,2.11,2.11,0,1,1,2.18-2Z" style="fill:#263238"></path><polygon points="241.04 107.19 240.8 119.43 247.32 117.73 241.04 107.19" style="fill:#f28f8f"></polygon><path d="M204.91,262.42v1.24a3.56,3.56,0,0,0,1.76,3.06l33.61,19.34a3.55,3.55,0,0,0,3.53,0l61.65-35.6a3.52,3.52,0,0,0,1.76-3.05v-.86l-65.17,37.63Z" style="fill:#FDAD7C"></path><g style="opacity:0.5"><path d="M204.91,262.42v1.24a3.56,3.56,0,0,0,1.76,3.06l33.61,19.34a3.55,3.55,0,0,0,3.53,0l61.65-35.6a3.52,3.52,0,0,0,1.76-3.05v-.86l-65.17,37.63Z" style="fill:#fff"></path></g><g style="opacity:0.1"><path d="M204.91,262.42v1.24a3.56,3.56,0,0,0,1.76,3.06l33.61,19.34a3.55,3.55,0,0,0,3.53,0l61.65-35.6a3.52,3.52,0,0,0,1.76-3.05v-.86l-65.17,37.63Z"></path></g><path d="M307.22,246.55l-36.55-21.1a2.08,2.08,0,0,0-2.1,0l-63.42,36.62a.47.47,0,0,0,0,.81l36.9,21.3Z" style="fill:#FDAD7C"></path><g style="opacity:0.85"><path d="M307.22,246.55l-36.55-21.1a2.08,2.08,0,0,0-2.1,0l-63.42,36.62a.47.47,0,0,0,0,.81l36.9,21.3Z" style="fill:#fff"></path></g><polygon points="242.28 280.74 222.56 269.37 279.64 236.42 299.46 247.74 242.28 280.74" style="fill:#FDAD7C"></polygon><g style="opacity:0.6000000000000001"><polygon points="242.28 280.74 222.56 269.37 279.64 236.42 299.46 247.74 242.28 280.74" style="fill:#fff"></polygon></g><polygon points="232.02 249.45 232.38 249.66 242.05 255.23 259.23 245.31 259.59 245.11 249.56 239.32 232.02 249.45" style="fill:#FDAD7C"></polygon><polygon points="232.38 249.66 242.05 255.23 259.23 245.31 249.56 239.73 232.38 249.66" style="fill:#FDAD7C"></polygon><g style="opacity:0.6000000000000001"><polygon points="232.38 249.66 242.05 255.23 259.23 245.31 249.56 239.73 232.38 249.66" style="fill:#fff"></polygon></g><path d="M242.05,284.18v2.35a3.6,3.6,0,0,0,1.76-.47l61.65-35.6a3.52,3.52,0,0,0,1.76-3.05v-.86Z" style="fill:#FDAD7C"></path><g style="opacity:0.03"><path d="M242.05,284.18v2.35a3.6,3.6,0,0,0,1.76-.47l61.65-35.6a3.52,3.52,0,0,0,1.76-3.05v-.86Z" style="fill:#fff"></path></g><g style="opacity:0.2"><path d="M242.05,284.18v2.35a3.6,3.6,0,0,0,1.76-.47l61.65-35.6a3.52,3.52,0,0,0,1.76-3.05v-.86Z"></path></g><path d="M243,284.7a4.15,4.15,0,0,0,3.6-.28L308,249a4.21,4.21,0,0,0,2-2.92L316.77,206a3.82,3.82,0,0,0,.05-.68,4.17,4.17,0,0,0-1.23-3L251.8,239.17a3.17,3.17,0,0,0-1.5,2.16Z" style="fill:#FDAD7C"></path><g style="opacity:0.4"><path d="M243,284.7a4.15,4.15,0,0,0,3.6-.28L308,249a4.21,4.21,0,0,0,2-2.92L316.77,206a3.82,3.82,0,0,0,.05-.68,4.17,4.17,0,0,0-1.23-3L251.8,239.17a3.17,3.17,0,0,0-1.5,2.16Z" style="fill:#fff"></path></g><path d="M242.05,284.18l.42.24a3.77,3.77,0,0,0,.57.28l7.26-43.37a3.17,3.17,0,0,1,1.5-2.16l63.79-36.83a4.55,4.55,0,0,0-.85-.65l-63.92,36.9a3.17,3.17,0,0,0-1.5,2.16Z" style="fill:#FDAD7C"></path><g style="opacity:0.6000000000000001"><path d="M242.05,284.18l.42.24a3.77,3.77,0,0,0,.57.28l7.26-43.37a3.17,3.17,0,0,1,1.5-2.16l63.79-36.83a4.55,4.55,0,0,0-.85-.65l-63.92,36.9a3.17,3.17,0,0,0-1.5,2.16Z" style="fill:#fff"></path></g><path d="M250.88,240l-1-.58a3.18,3.18,0,0,0-.57,1.32l-7.27,43.43.42.24a3.77,3.77,0,0,0,.57.28l7.26-43.37A3.14,3.14,0,0,1,250.88,240Z" style="fill:#FDAD7C"></path><path d="M250.88,240l-1-.58a3.18,3.18,0,0,0-.57,1.32l-7.27,43.43.42.24a3.77,3.77,0,0,0,.57.28l7.26-43.37A3.14,3.14,0,0,1,250.88,240Z" style="fill:#fff;opacity:0.5"></path><path d="M250.88,240l-1-.58a3.18,3.18,0,0,0-.57,1.32l-7.27,43.43.42.24a3.77,3.77,0,0,0,.57.28l7.26-43.37A3.14,3.14,0,0,1,250.88,240Z" style="opacity:0.1"></path><path d="M277.61,247.71c.45-2.68,3.22-6.25,6.19-8s5-.93,4.55,1.76-3.22,6.24-6.18,8S277.16,250.39,277.61,247.71Z" style="fill:#455a64"></path></g><path d="M125.66,303.5l24.68-70.71h9l-30.48,72a1.72,1.72,0,0,1-.72.81h0A1.73,1.73,0,0,1,125.66,303.5Z" style="fill:#37474f"></path><path d="M154.28,213.14l69.48,55.15a22.92,22.92,0,0,1,8.58,16l8.24,85.36a1.38,1.38,0,0,1-.7,1.33h0a1.4,1.4,0,0,1-2.08-1l-13.61-80.28a22.9,22.9,0,0,0-10.34-15.57l-59.27-37.48a19.17,19.17,0,0,1-1.67-31.22Z" style="fill:#455a64"></path><path d="M168.05,224.07a19.3,19.3,0,0,0-2.42,9.63,6.64,6.64,0,0,0,.57,2.93,7.18,7.18,0,0,0,2.4,2.44c3.92,2.75,8.44,4.49,12.91,6.21,7.2,2.77,15.23,5,22,7Z" style="opacity:0.2"></path><path d="M144.92,266.12h0A10.21,10.21,0,0,0,149.18,279L220.11,320a5.55,5.55,0,0,0,8.23-5.72h0l5.45,32.14h0a19.6,19.6,0,0,0-9.37-13.52l-78.85-45.52a8.09,8.09,0,0,0-11.47,3.79h0Z" style="fill:#37474f"></path><path d="M245,260.07C243.69,257.94,231.3,245,229.74,244c-3.34-2.25-7.48-1.82-12.06-3.89-4.17-1.88-6.26-4.08-15.63-10.07-8.9-5.69-14.47-9.46-14.47-9.46l11.71-36.81c7.59-15.06,2.07-31.8-3.58-36.26-7,1.53-11.78,3.41-16.18,19.12-2.7,9.65-11.73,39.36-13.56,49.37-2.18,12-2.58,15,8,20.25,10.85,5.39,31.73,13.52,35.23,15s4.54,3.49,7,4.89a30.3,30.3,0,0,0,5.73,2.59,22.33,22.33,0,0,1,6.41,3.58c.5.4,1,.8,1.55,1.16,3.23,2.22,6.48,3.93,10.46,2.67C244.73,264.75,246.27,262.19,245,260.07Z" style="fill:#ffa8a7"></path><path d="M198.93,146.05c-10.81,1.25-15.51,4.82-19.4,16.5s-10.76,37.06-10.76,37.06,12,10.57,24.71,9.53l8.45-29.33S213.27,155.73,198.93,146.05Z" style="fill:#455a64"></path></g><g id="freepik--Plant--inject-111"><g id="freepik--Pot--inject-111"><path d="M64.58,337.45C53.46,326,46.92,279.26,57.77,270.16H113c10.85,9.1,4.32,55.79-6.79,67.27l-.31.32-.38.38a12.66,12.66,0,0,1-1,.9,2.65,2.65,0,0,1-.26.21c-.27.22-.54.44-.84.65a14,14,0,0,1-1.44.92c-9.15,5.35-24,5.35-33.13,0h0a15.39,15.39,0,0,1-1.45-.93c-.28-.2-.53-.4-.78-.6l-.33-.26c-.35-.28-.67-.58-1-.87-.15-.14-.3-.29-.44-.44S64.66,337.54,64.58,337.45Z" style="fill:#FDAD7C"></path><g style="opacity:0.5"><path d="M64.58,337.45C53.46,326,46.92,279.26,57.77,270.16H113c10.85,9.1,4.32,55.79-6.79,67.27l-.31.32-.38.38a12.66,12.66,0,0,1-1,.9,2.65,2.65,0,0,1-.26.21c-.27.22-.54.44-.84.65a14,14,0,0,1-1.44.92c-9.15,5.35-24,5.35-33.13,0h0a15.39,15.39,0,0,1-1.45-.93c-.28-.2-.53-.4-.78-.6l-.33-.26c-.35-.28-.67-.58-1-.87-.15-.14-.3-.29-.44-.44S64.66,337.54,64.58,337.45Z" style="fill:#fff"></path></g><path d="M108.18,266.49c12.6,7.35,12.6,19.28,0,26.63s-33,7.35-45.61,0-12.59-19.28,0-26.63S95.59,259.14,108.18,266.49Z" style="fill:#FDAD7C"></path><g style="opacity:0.7000000000000001"><path d="M108.18,266.49c12.6,7.35,12.6,19.28,0,26.63s-33,7.35-45.61,0-12.59-19.28,0-26.63S95.59,259.14,108.18,266.49Z" style="fill:#fff"></path></g><path d="M102.12,270c9.25,5.4,9.25,14.15,0,19.55s-24.24,5.4-33.49,0-9.25-14.15,0-19.55S92.87,264.63,102.12,270Z" style="fill:#FDAD7C"></path><g style="opacity:0.30000000000000004"><path d="M102.12,270c9.25,5.4,9.25,14.15,0,19.55s-24.24,5.4-33.49,0-9.25-14.15,0-19.55S92.87,264.63,102.12,270Z"></path></g><path d="M68.63,279.31c9.25-5.4,24.24-5.4,33.49,0a15.43,15.43,0,0,1,5.54,5.13,15.36,15.36,0,0,1-5.54,5.14c-9.25,5.4-24.24,5.4-33.49,0a15.36,15.36,0,0,1-5.54-5.14A15.43,15.43,0,0,1,68.63,279.31Z" style="fill:#f5f5f5"></path><g id="freepik--Plants--inject-111"><path d="M80.85,255.74a15.62,15.62,0,0,1-1.4-4c-.62-3.36.22-7.22,2.94-9.29,1.08-.82,2.49-1.43,3-2.71a4.39,4.39,0,0,0,0-2.22c-.51-2.88-1.48-5.83-.68-8.63A9.64,9.64,0,0,1,90,223.12a28.92,28.92,0,0,1,7.81-2A12.44,12.44,0,0,0,102,219.9c1.54-.87,2-2.39,3-3.73a25.89,25.89,0,0,1,3.79-4c2.81-2.51,6.33-4.58,10.22-4.41,8.12.36,7.89,7.35,5.54,12.64s-3,7,2.12,12.54,5.08,12.32-1,16.13-10,4.31-7.6,11.64c2.14,6.55,3.47,12.14-2.58,19.13-3.91,4.53-9.26,7.75-16,7.48a26.74,26.74,0,0,1-7.82-1.83c-1.84-.91-.6-2.34-1.22-4.16q-2-5.85-4-11.71c-1-3-1.82-6.37-3.19-9.23C82.51,258.74,81.61,257.28,80.85,255.74Z" style="fill:#FDAD7C"></path><g style="opacity:0.15"><path d="M80.85,255.74a15.62,15.62,0,0,1-1.4-4c-.62-3.36.22-7.22,2.94-9.29,1.08-.82,2.49-1.43,3-2.71a4.39,4.39,0,0,0,0-2.22c-.51-2.88-1.48-5.83-.68-8.63A9.64,9.64,0,0,1,90,223.12a28.92,28.92,0,0,1,7.81-2A12.44,12.44,0,0,0,102,219.9c1.54-.87,2-2.39,3-3.73a25.89,25.89,0,0,1,3.79-4c2.81-2.51,6.33-4.58,10.22-4.41,8.12.36,7.89,7.35,5.54,12.64s-3,7,2.12,12.54,5.08,12.32-1,16.13-10,4.31-7.6,11.64c2.14,6.55,3.47,12.14-2.58,19.13-3.91,4.53-9.26,7.75-16,7.48a26.74,26.74,0,0,1-7.82-1.83c-1.84-.91-.6-2.34-1.22-4.16q-2-5.85-4-11.71c-1-3-1.82-6.37-3.19-9.23C82.51,258.74,81.61,257.28,80.85,255.74Z"></path></g><path d="M91.89,285.42a.58.58,0,0,0,.4-.57c-.34-40.11,21.76-64.05,22-64.29a.61.61,0,0,0,0-.85.59.59,0,0,0-.85,0c-.23.24-22.66,24.51-22.31,65.13a.6.6,0,0,0,.79.56Z" style="fill:#fff"></path><path d="M98.33,248.12l.12-.06c7.19-4.53,20-7.9,20.15-7.94a.6.6,0,0,0-.3-1.17c-.53.14-13.14,3.46-20.49,8.08a.62.62,0,0,0-.19.84A.61.61,0,0,0,98.33,248.12Z" style="fill:#fff"></path><path d="M100.55,242.62h0a.61.61,0,0,0,.32-.79,45.94,45.94,0,0,0-6.63-11.16.59.59,0,0,0-.84-.07.61.61,0,0,0-.07.85,45.8,45.8,0,0,1,6.44,10.84A.61.61,0,0,0,100.55,242.62Z" style="fill:#fff"></path><path d="M87.8,288.33a33.77,33.77,0,0,1-17.61.65c-10.1-2.19-16.28-11.62-16.28-11.62s10.93-4.38,17.3-4.81c0,0-9.89-1.68-19.14.42,0,0-5.85-2.18-4.74-12.06,0,0,5.5-4.06,18.17-2.47,0,0-6.35-4.53-17.48-5.87-.87,0,.31-12.85,1.37-18.59s3.17-4.84,7.72-4.35,18,3.56,19.72,6.86,0,11.72,0,11.72a19.27,19.27,0,0,0,3.72-11s5.06,1.86,7.77,4.25a18,18,0,0,1,4.85,6.06c-.63,4.52-2.76,11.41-5.74,15.25,0,0,6.71-4.33,8.25-12.31,0,0,5.36,6.85,5.31,15.7C101,276.24,96.49,283.73,87.8,288.33Z" style="fill:#FDAD7C"></path><path d="M87.59,288.87a.59.59,0,0,1-.36-.5c-1.53-19.13-22.94-49-32.41-55a.58.58,0,0,1-.18-.8.57.57,0,0,1,.79-.19c9.62,6.11,31.39,36.49,32.94,55.93a.58.58,0,0,1-.53.63A.73.73,0,0,1,87.59,288.87Z" style="fill:#fff"></path></g></g></g></svg>
